<svg width="14" height="14" viewBox="0 0 14 14" fill="none" xmlns="http://www.w3.org/2000/svg">
<path d="M2.38388 0.616119C1.89572 0.12796 1.10428 0.12796 0.616119 0.616119C0.12796 1.10428 0.12796 1.89578 0.616119 2.38394L5.23224 7.00003L0.616119 11.6161C0.12796 12.1043 0.12796 12.8958 0.616119 13.3839C1.10428 13.8721 1.89572 13.8721 2.38388 13.3839L7 8.76785L11.6161 13.3839C12.1043 13.8721 12.8957 13.8721 13.3839 13.3839C13.872 12.8958 13.872 12.1043 13.3839 11.6161L8.76776 7.00003L13.3839 2.38394C13.872 1.89578 13.872 1.10428 13.3839 0.616119C12.8957 0.12796 12.1043 0.12796 11.6161 0.616119L7 5.23221L2.38388 0.616119Z" fill="#0858CE"/>
</svg>
